<mxfile host="app.diagrams.net" modified="2022-04-27T22:03:05.825Z" agent="5.0 (Windows NT 10.0; Win64; x64) AppleWebKit/537.36 (KHTML, like Gecko) Chrome/100.0.4896.127 Safari/537.36" etag="VM8a_4eK4Y_9mxO6vaAX" version="17.4.6" type="github">
  <diagram id="umZ9zzCKdUElorUwMPrp" name="Page-1">
    <mxGraphModel dx="1422" dy="776" grid="1" gridSize="10" guides="1" tooltips="1" connect="1" arrows="1" fold="1" page="1" pageScale="1" pageWidth="850" pageHeight="1100" math="0" shadow="0">
      <root>
        <mxCell id="0" />
        <mxCell id="1" parent="0" />
        <mxCell id="4bKe4d1mhRpY0YqmzItA-1" value="Actor" style="swimlane;fontStyle=2;align=center;verticalAlign=top;childLayout=stackLayout;horizontal=1;startSize=26;horizontalStack=0;resizeParent=1;resizeLast=0;collapsible=1;marginBottom=0;rounded=0;shadow=0;strokeWidth=1;" parent="1" vertex="1">
          <mxGeometry x="220" y="90" width="240" height="210" as="geometry">
            <mxRectangle x="230" y="140" width="160" height="26" as="alternateBounds" />
          </mxGeometry>
        </mxCell>
        <mxCell id="4bKe4d1mhRpY0YqmzItA-2" value="+ Username: string&#xa;+ Password: string&#xa;+I D: int" style="text;align=left;verticalAlign=top;spacingLeft=4;spacingRight=4;overflow=hidden;rotatable=0;points=[[0,0.5],[1,0.5]];portConstraint=eastwest;" parent="4bKe4d1mhRpY0YqmzItA-1" vertex="1">
          <mxGeometry y="26" width="240" height="64" as="geometry" />
        </mxCell>
        <mxCell id="4bKe4d1mhRpY0YqmzItA-3" value="" style="line;html=1;strokeWidth=1;align=left;verticalAlign=middle;spacingTop=-1;spacingLeft=3;spacingRight=3;rotatable=0;labelPosition=right;points=[];portConstraint=eastwest;" parent="4bKe4d1mhRpY0YqmzItA-1" vertex="1">
          <mxGeometry y="90" width="240" height="8" as="geometry" />
        </mxCell>
        <mxCell id="4bKe4d1mhRpY0YqmzItA-4" value="+ CreateItenerary(Flight)&#xa;+ UpdatetItenerary(Flight, new_flight)&#xa;+ RemoveItenerary(Flights,Â remove_flight)&#xa;+ ViewItenerary()&#xa;+ ProfileInformation()" style="text;align=left;verticalAlign=top;spacingLeft=4;spacingRight=4;overflow=hidden;rotatable=0;points=[[0,0.5],[1,0.5]];portConstraint=eastwest;" parent="4bKe4d1mhRpY0YqmzItA-1" vertex="1">
          <mxGeometry y="98" width="240" height="112" as="geometry" />
        </mxCell>
        <mxCell id="4bKe4d1mhRpY0YqmzItA-5" value="Admin" style="swimlane;fontStyle=0;align=center;verticalAlign=top;childLayout=stackLayout;horizontal=1;startSize=26;horizontalStack=0;resizeParent=1;resizeLast=0;collapsible=1;marginBottom=0;rounded=0;shadow=0;strokeWidth=1;" parent="1" vertex="1">
          <mxGeometry x="80" y="426" width="160" height="194" as="geometry">
            <mxRectangle x="130" y="380" width="160" height="26" as="alternateBounds" />
          </mxGeometry>
        </mxCell>
        <mxCell id="4bKe4d1mhRpY0YqmzItA-6" value="+Username: string&lt;br&gt;+Password: string" style="text;html=1;align=left;verticalAlign=middle;resizable=0;points=[];autosize=1;strokeColor=none;fillColor=none;" parent="4bKe4d1mhRpY0YqmzItA-5" vertex="1">
          <mxGeometry y="26" width="160" height="30" as="geometry" />
        </mxCell>
        <mxCell id="4bKe4d1mhRpY0YqmzItA-15" value="" style="line;html=1;strokeWidth=1;align=left;verticalAlign=middle;spacingTop=-1;spacingLeft=3;spacingRight=3;rotatable=0;labelPosition=right;points=[];portConstraint=eastwest;" parent="4bKe4d1mhRpY0YqmzItA-5" vertex="1">
          <mxGeometry y="56" width="160" height="8" as="geometry" />
        </mxCell>
        <mxCell id="4bKe4d1mhRpY0YqmzItA-14" value="+ModifyTripType()&lt;br&gt;+ModifyFlightTime()&lt;br&gt;+ModifyFlightCrew()&lt;br&gt;+ModifySeat()&lt;br&gt;+RemoveItenerary()&lt;br&gt;+UpdateItenerary()" style="text;html=1;align=left;verticalAlign=middle;resizable=0;points=[];autosize=1;strokeColor=none;fillColor=none;" parent="4bKe4d1mhRpY0YqmzItA-5" vertex="1">
          <mxGeometry y="64" width="160" height="90" as="geometry" />
        </mxCell>
        <mxCell id="4bKe4d1mhRpY0YqmzItA-7" value="" style="endArrow=block;endSize=10;endFill=0;shadow=0;strokeWidth=1;rounded=0;edgeStyle=elbowEdgeStyle;elbow=vertical;" parent="1" source="4bKe4d1mhRpY0YqmzItA-5" target="4bKe4d1mhRpY0YqmzItA-1" edge="1">
          <mxGeometry width="160" relative="1" as="geometry">
            <mxPoint x="200" y="203" as="sourcePoint" />
            <mxPoint x="200" y="203" as="targetPoint" />
            <Array as="points">
              <mxPoint x="300" y="370" />
            </Array>
          </mxGeometry>
        </mxCell>
        <mxCell id="4bKe4d1mhRpY0YqmzItA-8" style="edgeStyle=orthogonalEdgeStyle;rounded=0;orthogonalLoop=1;jettySize=auto;html=1;" parent="1" source="4bKe4d1mhRpY0YqmzItA-9" edge="1">
          <mxGeometry relative="1" as="geometry">
            <mxPoint x="300" y="310" as="targetPoint" />
            <Array as="points">
              <mxPoint x="520" y="370" />
              <mxPoint x="300" y="370" />
            </Array>
          </mxGeometry>
        </mxCell>
        <mxCell id="4bKe4d1mhRpY0YqmzItA-9" value="System" style="swimlane;fontStyle=0;align=center;verticalAlign=top;childLayout=stackLayout;horizontal=1;startSize=26;horizontalStack=0;resizeParent=1;resizeLast=0;collapsible=1;marginBottom=0;rounded=0;shadow=0;strokeWidth=1;" parent="1" vertex="1">
          <mxGeometry x="440" y="426" width="193" height="230" as="geometry">
            <mxRectangle x="340" y="380" width="170" height="26" as="alternateBounds" />
          </mxGeometry>
        </mxCell>
        <mxCell id="4bKe4d1mhRpY0YqmzItA-10" value="+FlightDb: list&lt;string&gt;&#xa;+CrewDb: list&lt;string&gt;&#xa;+SeatDb: list&lt;string&gt;&#xa;+TimeDb: list&lt;DateTime&gt;&#xa;+Price: double&#xa;+Locatoins: List&lt;string&gt;" style="text;align=left;verticalAlign=top;spacingLeft=4;spacingRight=4;overflow=hidden;rotatable=0;points=[[0,0.5],[1,0.5]];portConstraint=eastwest;" parent="4bKe4d1mhRpY0YqmzItA-9" vertex="1">
          <mxGeometry y="26" width="193" height="94" as="geometry" />
        </mxCell>
        <mxCell id="4bKe4d1mhRpY0YqmzItA-11" value="" style="line;html=1;strokeWidth=1;align=left;verticalAlign=middle;spacingTop=-1;spacingLeft=3;spacingRight=3;rotatable=0;labelPosition=right;points=[];portConstraint=eastwest;" parent="4bKe4d1mhRpY0YqmzItA-9" vertex="1">
          <mxGeometry y="120" width="193" height="10" as="geometry" />
        </mxCell>
        <mxCell id="4bKe4d1mhRpY0YqmzItA-19" value="+PushUpdate()&lt;br&gt;+PushItenerary(ID)&lt;br&gt;+CancellationToken()&lt;br&gt;+RequestPayment()&lt;br&gt;+Authenticate()&lt;br&gt;+OnewayPricing()&lt;br&gt;+RoundTripPricing()" style="text;html=1;align=center;verticalAlign=middle;resizable=0;points=[];autosize=1;strokeColor=none;fillColor=none;fontSize=12;fontFamily=Helvetica;fontColor=default;" parent="4bKe4d1mhRpY0YqmzItA-9" vertex="1">
          <mxGeometry y="130" width="193" height="100" as="geometry" />
        </mxCell>
        <mxCell id="4bKe4d1mhRpY0YqmzItA-17" value="" style="endArrow=classic;startArrow=classic;html=1;rounded=0;fontFamily=Helvetica;fontSize=12;fontColor=default;entryX=-0.031;entryY=-0.05;entryDx=0;entryDy=0;entryPerimeter=0;" parent="1" edge="1">
          <mxGeometry width="50" height="50" relative="1" as="geometry">
            <mxPoint x="250" y="520" as="sourcePoint" />
            <mxPoint x="435.03999999999996" y="520" as="targetPoint" />
            <Array as="points" />
          </mxGeometry>
        </mxCell>
      </root>
    </mxGraphModel>
  </diagram>
</mxfile>
